La Vita e bella *1997* [HD][720p][ITA, POL]

General information:
The life is very beautiful but not for everyone
Country: Italy 
Release: May 1998 (Cannes Film Festival)
Genre: Drama, Romance, War 
Director: Roberto Benigni
Screenplay:  Vincenzo Cerami, Roberto Benigni
Original Music: Nicola Paviani 
Cinematography by: Tonino Delli Colli 
Duration: 1h 56mn
Language: Italian, Polish 
No Subtitles
Rating: 8.4/10 - 30520 votes 
[img]http://img844.imageshack.us/img844/9034/70246913.jpg[/img]

[img]http://img690.imageshack.us/img690/3017/beznazwy1qw.jpg[/img]

Cast:
Roberto Benigni  ...  Guido Orefice  
Nicoletta Braschi  ...  Dora  
Giorgio Cantarini  ...  Giosué Orefice  
Giustino Durano  ...  Eliseo Orefice  
Sergio Bini Bustric  ...  Ferruccio Papini (as Sergio Bustric)  
Marisa Paredes  ...  Madre di Dora  
Horst Buchholz  ...  Doctor Lessing (as Horst Bucholz)  
Lidia Alfonsi  ...  Guicciardini  
Giuliana Lojodice  ...  School Principal  
Amerigo Fontani  ...  Rodolfo  
Pietro De Silva  ...  Bartolomeo  
Francesco Guzzo  ...  Vittorino  
Raffaella Lebboroni  ...  Elena  
Claudio Alfonsi  ...  Amico Rodolfo  
Gil Baroni  ...  Prefect  

Plot:
A Jewish man has a wonderful romance with the help of his humour, but must use that same quality to protect his son in a Nazi death camp. 

Specifications:
General
Format                           : Matroska
Overall bit rate                 : 6 616 Kbps

Video
Format                           : AVC
Format/Info                      : Advanced Video Codec
Format profile                   : High@L4.1
Format settings, CABAC           : Yes
Format settings, ReFrames        : 8 frames
Muxing mode                      : Container profile=Unknown@4.1
Codec ID                         : V_MPEG4/ISO/AVC
Duration                         : 1h 56mn
Bit rate                         : 4 664 Kbps
Width                            : 1 280 pixels
Height                           : 694 pixels
Display aspect ratio             : 16:9
Frame rate                       : 23.976 fps

Audio 1
Format                           : DTS
Format/Info                      : Digital Theater Systems
Codec ID                         : A_DTS
Bit rate mode                    : Constant
Bit rate                         : 1 510 Kbps
Channel(s)                       : 6 channels
Channel positions                : Front: L C R, Side: L R, LFE
Sampling rate                    : 48.0 KHz
Bit depth                        : 24 bits
Stream size                      : 1.23 GiB (23%)
Title                            : Italian
Language                         : Italian

Audio 2
Format                           : AC-3
Format/Info                      : Audio Coding 3
Mode extension                   : CM (complete main)
Codec ID                         : A_AC3
Bit rate mode                    : Constant
Bit rate                         : 448 Kbps
Channel(s)                       : 6 channels
Channel positions                : Front: L C R, Side: L R, LFE
Sampling rate                    : 48.0 KHz
Video delay                      : 250ms
Stream size                      : 372 MiB (7%)
Title                            : Polish
Language                         : Polish
